# xmcd
#
# Track frame offsets: 
#        150
#        15335
#        27830
#        39170
#        58098
#        69530
#        87603
#        97311
#        107362
#        121519
#        139445
#        154045
#        167077
#        178208
#        185780
#        196890
#        202206
#        217251
#        228682
#        242790
#        259003
#        280879
#        300340
#        311289
#        322850
#        337296
#
# Disc length: 4675 seconds
#
# Revision: 0
# Processed by: cddbd v1.5.2PL0 Copyright (c) Steve Scherf et al.
# Submitted via: ExactAudioCopy v1.3
#
DISCID=7f12411a
DTITLE=David Allan Coe - 4 Classic Albums 1974-1978
DYEAR=2013
DGENRE=Country
TTITLE0=Longhaired Redneck
TTITLE1=When She's Got Me (Where She Wants Me)
TTITLE2=Revenge
TTITLE3=Texas Lullaby
TTITLE4=Living On The Run
TTITLE5=Family Reunion
TTITLE6=Rock And Roll Holiday
TTITLE7=Free Born Rambling Man
TTITLE8=Spotlight
TTITLE9=Dakota The Dancing Bear, Part 2
TTITLE10=Willie, Waylon And Me
TTITLE11=The House We've Been Calling A Home
TTITLE12=Young Dallas Cowboy
TTITLE13=A Sense Of Humor
TTITLE14=The Punkin Center Barn Dance
TTITLE15=Willie, Waylon And Me (Reprise)
TTITLE16=Lately I've Been Thinking Too Much Lately
TTITLE17=Laid Back And Wasted
TTITLE18=Under Rachel's Wings
TTITLE19=Greener Than The Grass We Laid On
TTITLE20=If That Ain't Country
TTITLE21=Please Come To Boston
TTITLE22=Just To Prove My Love To You
TTITLE23=Face To Face
TTITLE24=Million Dollar Memories
TTITLE25=Take This Job And Shove It
EXTD=
EXTT0=
EXTT1=
EXTT2=
EXTT3=
EXTT4=
EXTT5=
EXTT6=
EXTT7=
EXTT8=
EXTT9=
EXTT10=
EXTT11=
EXTT12=
EXTT13=
EXTT14=
EXTT15=
EXTT16=
EXTT17=
EXTT18=
EXTT19=
EXTT20=
EXTT21=
EXTT22=
EXTT23=
EXTT24=
EXTT25=
PLAYORDER=
